<?xml version="1.0" encoding="UTF-8"?>
<svg version="1.1" xmlns="http://www.w3.org/2000/svg" width="32" height="26">
<path d="M0 0 C8.58 0 17.16 0 26 0 C29.76056338 10.02816901 29.76056338 10.02816901 29 14 C27.63030037 15.95192668 26.15120172 17.65996921 24.5078125 19.38671875 C22.7938236 21.13280353 22.7938236 21.13280353 21 24 C18.9375 24.625 18.9375 24.625 17 25 C16.67 25.33 16.34 25.66 16 26 C12.20788455 26.43092221 10.52696399 26.37640285 7.375 24.125 C6.59125 23.42375 5.8075 22.7225 5 22 C4.278125 21.67 3.55625 21.34 2.8125 21 C0.48530729 19.71603161 0.0471284 18.39343635 -1 16 C-1.66 15.34 -2.32 14.68 -3 14 C-3.046875 12.01171875 -3.046875 12.01171875 -2.75 9.6875 C-2.61851563 8.54861328 -2.61851563 8.54861328 -2.484375 7.38671875 C-2 5 -2 5 0 0 Z " fill="#4DA1EA" transform="translate(3,0)"/>
<path d="M0 0 C6.6 0 13.2 0 20 0 C22 4 22 4 22 6.5 C20.57957324 10.05106689 18.24095174 11.13817666 15 13 C15.66 13.33 16.32 13.66 17 14 C15.77065985 17.68802044 14.06140622 18.72356973 11 21 C7.56404834 19.47291037 4.88087546 17.40072955 2 15 C3.23263349 11.30209954 4.20052451 11.0645154 7.5625 9.3125 C9.7590625 8.1678125 9.7590625 8.1678125 12 7 C5.07 6.505 5.07 6.505 -2 6 C-1.34 4.02 -0.68 2.04 0 0 Z " fill="#C9E9FB" transform="translate(6,2)"/>
<path d="M0 0 C0.33 0.66 0.66 1.32 1 2 C-0.65 2.99 -2.3 3.98 -4 5 C-3.34 5.33 -2.68 5.66 -2 6 C-3.22934015 9.68802044 -4.93859378 10.72356973 -8 13 C-11.43595166 11.47291037 -14.11912454 9.40072955 -17 7 C-15.81373182 3.44119547 -14.34755806 2.54931449 -11.12109375 0.78515625 C-7.46143317 -0.56952474 -3.84054605 -0.31351396 0 0 Z " fill="#AACFFC" transform="translate(25,10)"/>
<path d="M0 0 C0.66 0 1.32 0 2 0 C2 0.66 2 1.32 2 2 C7.28 2 12.56 2 18 2 C15.57217176 4.42782824 14.32426017 5.48476756 11.4375 6.9375 C8.52744472 8.5275935 7.05223994 9.72636462 6 13 C3.13496932 11.7156759 0.84572295 10.58401213 -1 8 C-1.25265405 4.90498792 -1.39935013 2.79870027 0 0 Z " fill="#599BF5" transform="translate(1,6)"/>
<path d="M0 0 C4.68558952 1.64628821 4.68558952 1.64628821 6.5 3.6875 C7.97437993 5.28488217 7.97437993 5.28488217 10.4375 4.875 C13.0634427 4.13006484 13.0634427 4.13006484 15.125 2.375 C15.74375 1.92125 16.3625 1.4675 17 1 C17.99 1.33 18.98 1.66 20 2 C17.53222836 6.8121547 17.53222836 6.8121547 14.875 7.75 C13.946875 7.87375 13.946875 7.87375 13 8 C12.67 8.33 12.34 8.66 12 9 C8.20788455 9.43092221 6.52696399 9.37640285 3.375 7.125 C2.59125 6.42375 1.8075 5.7225 1 5 C-0.31138904 4.29114106 -1.63777017 3.60543548 -3 3 C-2.01 2.67 -1.02 2.34 0 2 C0 1.34 0 0.68 0 0 Z " fill="#3868E7" transform="translate(7,17)"/>
<path d="M0 0 C0.74507812 0.00902344 1.49015625 0.01804688 2.2578125 0.02734375 C4.08868059 0.05081642 5.91938238 0.08668475 7.75 0.125 C8.08 1.445 8.41 2.765 8.75 4.125 C1.82 4.125 -5.11 4.125 -12.25 4.125 C-12.25 3.465 -12.25 2.805 -12.25 2.125 C-8.4084024 -0.44280471 -4.4360825 -0.10188882 0 0 Z " fill="#F4FCFD" transform="translate(16.25,3.875)"/>
<path d="M0 0 C0 1.65 0 3.3 0 5 C-1.98 5.99 -1.98 5.99 -4 7 C-6.04119788 5.38405168 -8.04072937 3.7143618 -10 2 C-10 1.34 -10 0.68 -10 0 C-6.7169902 -1.6415049 -3.57454967 -0.51888624 0 0 Z " fill="#E3F0FD" transform="translate(19,16)"/>
<path d="M0 0 C-0.62759865 2.92879371 -1.58622659 5.36095629 -3 8 C-6.36720387 6.60667426 -7.9859524 5.0210714 -10 2 C-6.5980513 -0.09350689 -3.94727588 -0.17942163 0 0 Z " fill="#4384F9" transform="translate(10,11)"/>
<path d="M0 0 C0.33 0.66 0.66 1.32 1 2 C1.66 2 2.32 2 3 2 C0.44416168 7.47679641 -2.46161356 8.70825389 -8 11 C-9.34013497 11.65288627 -10.67741528 12.31225595 -12 13 C-11.278125 12.29875 -10.55625 11.5975 -9.8125 10.875 C-7.83067874 8.91006927 -6.05292847 6.86821544 -4.3125 4.6875 C-3.1678125 3.3571875 -3.1678125 3.3571875 -2 2 C-1.34 2 -0.68 2 0 2 C0 1.34 0 0.68 0 0 Z " fill="#4784F0" transform="translate(29,10)"/>
<path d="M0 0 C0.66 0 1.32 0 2 0 C2 2.64 2 5.28 2 8 C1.34 8 0.68 8 0 8 C-0.33 8.99 -0.66 9.98 -1 11 C-1.66 11 -2.32 11 -3 11 C-3.33 11.66 -3.66 12.32 -4 13 C-4.99 12.34 -5.98 11.68 -7 11 C-6.4946875 10.70867188 -5.989375 10.41734375 -5.46875 10.1171875 C-3.46497803 8.8529028 -1.70261567 7.65140918 0 6 C0.5863982 2.78723657 0.5863982 2.78723657 0 0 Z " fill="#5994E4" transform="translate(27,4)"/>
<path d="M0 0 C3.91402949 1.26941497 5.79072873 2.51167694 8 6 C7.01 6.495 7.01 6.495 6 7 C6 6.34 6 5.68 6 5 C4.88625 5.061875 3.7725 5.12375 2.625 5.1875 C1.42875 5.125625 0.2325 5.06375 -1 5 C-1.66 4.01 -2.32 3.02 -3 2 C-2.01 2 -1.02 2 0 2 C0 1.34 0 0.68 0 0 Z " fill="#426AD8" transform="translate(7,17)"/>
<path d="M0 0 C2.78633115 4.17949673 4 6.93375326 4 12 C3.34 12 2.68 12 2 12 C0.64560332 9.29120665 0.93498549 6.99066732 1 4 C0.34 3.67 -0.32 3.34 -1 3 C-0.67 2.01 -0.34 1.02 0 0 Z " fill="#4896F3" transform="translate(28,0)"/>
<path d="M0 0 C2.97 0 5.94 0 9 0 C9.33 0.66 9.66 1.32 10 2 C6.30458414 2.95024979 3.69541586 2.95024979 0 2 C0 1.34 0 0.68 0 0 Z " fill="#B6DBFE" transform="translate(16,10)"/>
<path d="M0 0 C1.98 0 3.96 0 6 0 C3.63707344 2.52588702 2.33537489 3.88820837 -1 5 C-0.67 3.35 -0.34 1.7 0 0 Z " fill="#518FDC" transform="translate(11,9)"/>
<path d="" fill="#1C5CAB" transform="translate(0,0)"/>
<path d="" fill="#2449AD" transform="translate(0,0)"/>
<path d="" fill="#3845DE" transform="translate(0,0)"/>
<path d="" fill="#0956D9" transform="translate(0,0)"/>
<path d="" fill="#3C49C0" transform="translate(0,0)"/>
<path d="" fill="#144DB7" transform="translate(0,0)"/>
<path d="" fill="#304DB3" transform="translate(0,0)"/>
<path d="" fill="#3350B6" transform="translate(0,0)"/>
<path d="" fill="#1976F6" transform="translate(0,0)"/>
<path d="" fill="#1E75F0" transform="translate(0,0)"/>
<path d="" fill="#147BF3" transform="translate(0,0)"/>
<path d="" fill="#3E5BEC" transform="translate(0,0)"/>
<path d="" fill="#377BE8" transform="translate(0,0)"/>
<path d="" fill="#357DE6" transform="translate(0,0)"/>
<path d="" fill="#447EF5" transform="translate(0,0)"/>
<path d="" fill="#0E79D2" transform="translate(0,0)"/>
<path d="" fill="#2D6FDD" transform="translate(0,0)"/>
<path d="" fill="#287CEB" transform="translate(0,0)"/>
<path d="" fill="#3466E4" transform="translate(0,0)"/>
<path d="" fill="#435AE6" transform="translate(0,0)"/>
</svg>
